<svg width="64" height="64" viewBox="0 0 64 64" xmlns="http://www.w3.org/2000/svg">
  <path d="M12 48 L24 20 L34 20 L24 48 Z" fill="#CC0000"/>
  <path d="M21 38 L34 38 L31 43 L17 43 Z" fill="#CC0000"/>
  
  <path d="M34 24 C42 16, 52 24, 48 34 C45 42, 36 44, 34 40" fill="none" stroke="#222222" stroke-width="5" stroke-linecap="round"/>
  <path d="M34 24 C38 18, 48 20, 52 26" fill="none" stroke="#CC0000" stroke-width="5" stroke-linecap="round"/>
  <path d="M48 20 L56 16 L54 25 Z" fill="#CC0000"/>

  <path d="M24 32 L28 28 M24 32 L28 36" fill="none" stroke="#222222" stroke-width="2.5" stroke-linecap="round" stroke-linejoin="round"/>
  <path d="M24 32 L28 28 M24 32 L28 36" fill="none" stroke="#FFFFFF" stroke-width="1.5" stroke-linecap="round" stroke-linejoin="round"/>
  <line x1="30" y1="37" x2="34" y2="27" stroke="#222222" stroke-width="2.5" stroke-linecap="round"/>
  <line x1="30" y1="37" x2="34" y2="27" stroke="#FFFFFF" stroke-width="1.5" stroke-linecap="round"/>
  <path d="M40 32 L36 28 M40 32 L36 36" fill="none" stroke="#222222" stroke-width="2.5" stroke-linecap="round" stroke-linejoin="round"/>
  <path d="M40 32 L36 28 M40 32 L36 36" fill="none" stroke="#FFFFFF" stroke-width="1.5" stroke-linecap="round" stroke-linejoin="round"/>
</svg>
